<?xml version="1.0" standalone="no"?><!DOCTYPE svg PUBLIC "-//W3C//DTD SVG 1.1//EN" "http://www.w3.org/Graphics/SVG/1.1/DTD/svg11.dtd"><svg t="1590138015955" class="icon" viewBox="0 0 1024 1024" version="1.1" xmlns="http://www.w3.org/2000/svg" p-id="4489" xmlns:xlink="http://www.w3.org/1999/xlink" width="264" height="264"><defs><style type="text/css"></style></defs><path d="M792.250182 492.544c19.176727 34.164364 32.023273 72.378182 37.003636 112.965818H949.527273a46.545455 46.545455 0 0 1 0 93.090909H837.818182v101.143273a105.518545 105.518545 0 0 1-105.518546 105.472H310.318545A105.518545 105.518545 0 0 1 204.8 799.744v-101.143273H93.090909a46.545455 46.545455 0 1 1 0-93.090909h120.273455a310.551273 310.551273 0 0 1 170.775272-240.034909 198.609455 198.609455 0 1 1 274.338909 0 310.923636 310.923636 0 0 1 72.424728 49.570909l81.221818-129.908363a46.545455 46.545455 0 0 1 78.941091 49.338181l-98.816 158.068364z m-57.111273 112.965818a217.274182 217.274182 0 0 0-427.659636 0h427.659636z m-437.248 93.090909v101.143273c0 6.842182 5.585455 12.381091 12.427636 12.381091h421.981091c6.888727 0 12.427636-5.538909 12.427637-12.381091v-101.143273H297.890909z m223.418182-371.246545a105.518545 105.518545 0 1 0 0-210.990546 105.518545 105.518545 0 0 0 0 210.990546z" p-id="4490"></path></svg>