<?xml version="1.0" standalone="no"?><!DOCTYPE svg PUBLIC "-//W3C//DTD SVG 1.1//EN" "http://www.w3.org/Graphics/SVG/1.1/DTD/svg11.dtd"><svg t="1590127628192" class="icon" viewBox="0 0 1024 1024" version="1.1" xmlns="http://www.w3.org/2000/svg" p-id="1333" xmlns:xlink="http://www.w3.org/1999/xlink" width="200" height="200"><defs><style type="text/css"></style></defs><path d="M950.4 489.6c6.4 6.4 9.6 12.8 9.6 22.4 0 246.4-201.6 448-448 448S64 758.4 64 512c0-9.6 3.2-16 9.6-22.4s12.8-9.6 22.4-9.6h128c19.2 0 32 12.8 32 32s-12.8 32-32 32H128c16 198.4 182.4 352 384 352s368-153.6 384-352h-96c-19.2 0-32-12.8-32-32s12.8-32 32-32h128c9.6 0 16 3.2 22.4 9.6zM480 316.8c-54.4-12.8-96-64-96-124.8 0-70.4 57.6-128 128-128s128 57.6 128 128c0 60.8-41.6 108.8-96 124.8V672c0 19.2-12.8 32-32 32s-32-12.8-32-32V316.8zM512 256c35.2 0 64-28.8 64-64s-28.8-64-64-64-64 28.8-64 64 28.8 64 64 64z" p-id="1334"></path></svg>